<?xml version="1.0" standalone="no"?>
<!DOCTYPE svg PUBLIC "-//W3C//DTD SVG 20010904//EN"
 "http://www.w3.org/TR/2001/REC-SVG-20010904/DTD/svg10.dtd">
<svg version="1.0" xmlns="http://www.w3.org/2000/svg"
 width="32.000000pt" height="32.000000pt" viewBox="0 0 32.000000 32.000000"
 preserveAspectRatio="xMidYMid meet">
<metadata>
Created by potrace 1.11, written by Peter Selinger 2001-2013
</metadata>
<g transform="translate(0.000000,32.000000) scale(0.100000,-0.100000)"
fill="#000000" stroke="none">
<path d="M0 160 l0 -160 160 0 160 0 0 160 0 160 -160 0 -160 0 0 -160z m300
0 l0 -140 -140 0 -140 0 0 140 0 140 140 0 140 0 0 -140z"/>
<path d="M64 219 c-29 -30 -29 -30 -4 -21 19 7 42 5 89 -11 l63 -20 -81 -25
c-44 -14 -82 -31 -85 -39 -3 -8 -2 -12 3 -9 4 3 33 0 63 -6 63 -13 103 -6 118
23 10 19 10 20 -9 10 -23 -13 -80 -14 -99 -3 -8 6 6 13 39 20 29 7 68 22 87
34 l36 22 -50 11 c-27 7 -66 19 -88 28 -50 22 -47 22 -82 -14z"/>
</g>
</svg>
