<?xml version="1.0" encoding="utf-8"?>
<!-- Generated by IcoMoon.io -->
<!DOCTYPE svg PUBLIC "-//W3C//DTD SVG 1.1//EN" "http://www.w3.org/Graphics/SVG/1.1/DTD/svg11.dtd">
<svg version="1.1" xmlns="http://www.w3.org/2000/svg" xmlns:xlink="http://www.w3.org/1999/xlink" width="16" height="16" viewBox="0 0 16 16">
<g id="icomoon-ignore">
	<line stroke-width="1" x1="" y1="" x2="" y2="" stroke="#449FDB" opacity=""></line>
</g>
	<path d="M14 12q0 0.078-0.008 0.227t-0.055 0.563-0.133 0.789-0.273 0.836-0.438 0.797-0.664 0.563-0.93 0.227q-0.984 0-1.844-0.313t-1.492-0.75-1.234-0.875-1.352-0.75-1.578-0.313q-1.203 0-1.602-0.078t-0.398-0.422q0-0.75 0.852-2.055t1.906-2.492 2.367-2.68 1.875-2.273q-0.656 0.328-0.945 0.461t-0.93 0.336-1.125 0.203q-0.813 0-1.406-0.625t-0.594-1.375q0-0.406 0.102-0.766t0.25-0.57 0.297-0.375 0.242-0.227l0.109-0.063q0.016 0.047 0.055 0.109t0.18 0.234 0.305 0.305 0.422 0.242 0.539 0.109q1.188 0 2.188-0.156t1.516-0.344 1-0.344 0.797-0.156q0.359 0 0.578 0.078t0.305 0.25 0.102 0.297 0.016 0.375q0 0.547-0.867 1.758t-1.969 2.422-2.422 2.734-1.961 2.43q0.891 0.313 2.188 1.008t2.32 1.172 1.711 0.477q1.234 0 1.938-0.906z" fill="#000000"></path>
</svg>
